<?xml version="1.0" encoding="UTF-8" standalone="no"?>
<!-- Generator: Adobe Illustrator 18.0.0, SVG Export Plug-In . SVG Version: 6.00 Build 0)  -->

<svg
   xmlns:dc="http://purl.org/dc/elements/1.1/"
   xmlns:cc="http://creativecommons.org/ns#"
   xmlns:rdf="http://www.w3.org/1999/02/22-rdf-syntax-ns#"
   xmlns:svg="http://www.w3.org/2000/svg"
   xmlns="http://www.w3.org/2000/svg"
   xmlns:sodipodi="http://sodipodi.sourceforge.net/DTD/sodipodi-0.dtd"
   xmlns:inkscape="http://www.inkscape.org/namespaces/inkscape"
   version="1.1"
   id="Layer_1"
   inkscape:version="0.91 r13725"
   sodipodi:docname="fcc_bomholt_logo.svg"
   x="0px"
   y="0px"
   viewBox="0 323.8 2047.4 407.4"
   enable-background="new 0 323.8 2739 407.4"
   xml:space="preserve"
   width="2047.4"
   height="407.39999"><metadata
     id="metadata3448"><rdf:RDF><cc:Work
         rdf:about=""><dc:format>image/svg+xml</dc:format><dc:type
           rdf:resource="http://purl.org/dc/dcmitype/StillImage" /><dc:title></dc:title></cc:Work></rdf:RDF></metadata><defs
     id="defs3446" /><sodipodi:namedview
     id="namedview43"
     inkscape:pageopacity="0"
     inkscape:current-layer="Layer_1"
     inkscape:window-x="0"
     inkscape:window-maximized="1"
     inkscape:window-width="1366"
     inkscape:pageshadow="2"
     inkscape:window-height="744"
     inkscape:window-y="0"
     inkscape:cx="1118.4662"
     inkscape:zoom="0.35355339"
     bordercolor="#666666"
     inkscape:cy="424.66155"
     objecttolerance="10"
     borderopacity="1"
     showgrid="true"
     gridtolerance="10"
     guidetolerance="10"
     pagecolor="#ffffff"><inkscape:grid
       type="xygrid"
       id="grid3396" /></sodipodi:namedview><path
     id="path29"
     inkscape:connector-curvature="0"
     inkscape:export-filename="C:\Users\anon\Desktop\logo4.0.png"
     inkscape:export-ydpi="90"
     inkscape:export-xdpi="90"
     d="m 24.4,526.19999 c 0,-45.3 15.5,-85.5 47.1,-121.1 11.5,-13.2 20.7,-19.5 27,-19.5 2.3,0 4.6,0.6 6.3,2.3 1.7,1.7 2.9,3.4 2.9,5.7 0,3.4 -4,8.6 -12.1,16.6 -32.7,31.6 -49.4,70.6 -49.4,117.1 0,51.6 17.2,93.5 51.1,125.7 6.9,6.3 10.3,11.5 10.3,15.5 0,2.3 -1.1,4.6 -2.9,6.3 -1.7,1.7 -4,2.9 -6.3,2.9 -8,0 -18.9,-9.2 -33.3,-27.5 -27.5,-33.9 -40.7,-75.2 -40.7,-124 z"
     style="fill:#ffffff" /><path
     id="path31"
     inkscape:connector-curvature="0"
     inkscape:export-filename="C:\Users\anon\Desktop\logo4.0.png"
     inkscape:export-ydpi="90"
     inkscape:export-xdpi="90"
     d="m 458.8,537.69999 c 0,45.3 -15.5,85.5 -47.1,121.1 -11.5,13.2 -20.7,19.5 -27,19.5 -2.3,0 -4.6,-0.6 -6.3,-2.3 -1.7,-1.7 -2.9,-4 -2.9,-6.3 0,-3.4 4,-8.6 12.1,-16.1 32.7,-31.6 49.4,-70.6 49.4,-117.1 0,-51.6 -17.2,-93.5 -51.1,-125.7 -6.9,-6.3 -10.3,-11.5 -10.3,-15.5 0,-2.3 1.1,-4.6 2.9,-6.3 1.7,-1.7 4,-2.9 6.3,-2.9 7.5,0 18.9,9.2 33.3,27.5 26.9,34.5 40.7,75.9 40.7,124.1 z"
     style="fill:#ffffff" /><g
     id="g33"
     transform="translate(-2222,1.9999883)"
     inkscape:export-filename="C:\Users\anon\Desktop\logo4.0.png"
     inkscape:export-ydpi="90"
     inkscape:export-xdpi="90"
     style="fill:#ffffff"><line
       id="line35"
       x1="2368.6001"
       y1="636.70001"
       x2="2567.8"
       y2="636.70001"
       style="fill:#ffffff" /><path
       id="path37"
       inkscape:connector-curvature="0"
       d="m 2567.2,648.7 -199.1,0 c -6.3,0 -12.1,-5.2 -12.1,-12.1 0,-6.9 5.2,-12.1 12.1,-12.1 l 199.1,0 c 6.3,0 12.1,5.2 12.1,12.1 -0.1,7 -5.2,12.1 -12.1,12.1 z"
       style="fill:#ffffff" /></g><path
     id="path3081"
     inkscape:connector-curvature="0"
     inkscape:export-filename="C:\Users\anon\Desktop\logo4.0.png"
     inkscape:export-ydpi="90"
     inkscape:export-xdpi="90"
     d="m 307,477.89999 c -3.2,-10.8 -8.3,-21 -16.1,-29 -2.1,-2.1 -4.3,-4.1 -6.5,-6.1 -1.7,-1.6 -6,-4.1 -6.9,-6.2 4.6,10.7 9.1,21.8 5.7,33.6 -1.6,5.3 -7.4,18.1 -15.1,14.8 -7.2,-3.1 -6.4,-18.3 -7,-24.4 -1.5,-15.1 -4.9,-30.1 -12.9,-43.1 -4.4,-7.1 -10.1,-13.4 -17.3,-17.7 -9.5,-5.6 -19.3,-9.4 -30.1,-5.3 2.4,-0.9 8.6,6.3 9.8,7.7 3.8,4.5 6.9,9.8 8.6,15.4 3.4,11.4 0.4,24.5 -3.6,35.4 -8.3,22.6 -22.1,42.9 -28.7,66.1 -2.3,8.1 -3.9,16.4 -4.3,24.8 -1.4,26.5 12.4,50.8 34.2,65.6 4.9,3.4 13.7,7.6 20,5.4 -18.3,-9.8 -24.4,-17.8 -27.2,-29.3 -6.6,-26.7 18.4,-43.7 29.2,-64.8 2.9,-5.6 5,-11.8 4.2,-18.2 -0.3,-2.4 -3,-14.1 -6.6,-13.5 10.9,-1.7 18,5.5 21.7,14.9 3.9,10 6.3,20.2 4.5,30.8 -0.6,3.5 -3.2,14.6 1.9,15.3 7.1,1 13.1,-8.4 11.7,-17.4 -0.7,-4.2 -1.5,-10.6 -1.5,-10.6 7.5,9.2 10.9,18.5 12,28.6 2,18.1 -5.8,42 -20.3,56.8 6.1,-6.2 13.9,-10.5 19.8,-17.2 6,-6.8 10.6,-14.6 14.2,-23 8.1,-18.6 12.8,-39.6 11.4,-59.9 -0.5,-9.7 -1.9,-19.9 -4.8,-29.5 l 0,0 z"
     style="fill:#ffffff" /><flowRoot
     xml:space="preserve"
     id="flowRoot3450"
     style="font-style:normal;font-variant:normal;font-weight:normal;font-stretch:normal;font-size:40px;line-height:125%;font-family:saxMono;-inkscape-font-specification:saxMono;letter-spacing:0px;word-spacing:0px;fill:#ffffff;fill-opacity:1;stroke:none;stroke-width:1px;stroke-linecap:butt;stroke-linejoin:miter;stroke-opacity:1;"
     transform="translate(0,323.79998)"><flowRegion
       id="flowRegion3452"><rect
         id="rect3454"
         width="136"
         height="230"
         x="1132"
         y="61.399994"
         style="font-style:normal;font-variant:normal;font-weight:normal;font-stretch:normal;font-family:saxMono;-inkscape-font-specification:saxMono;fill:#ffffff;" /></flowRegion><flowPara
       id="flowPara3456" /></flowRoot><text
     xml:space="preserve"
     style="font-style:normal;font-weight:normal;font-size:328.57687378px;line-height:125%;font-family:sans-serif;letter-spacing:0px;word-spacing:0px;fill:#ffffff;fill-opacity:1;stroke:none;stroke-width:1px;stroke-linecap:butt;stroke-linejoin:miter;stroke-opacity:1;"
     x="475.71643"
     y="646.45093"
     id="text3458"
     sodipodi:linespacing="125%"
     transform="scale(0.99994071,1.0000593)"><tspan
       sodipodi:role="line"
       id="tspan3460"
       x="475.71643"
       y="646.45093"
       style="font-style:normal;font-variant:normal;font-weight:normal;font-stretch:normal;font-family:saxMono;-inkscape-font-specification:saxMono;fill:#ffffff;">/bomho</tspan></text>
<text
     xml:space="preserve"
     style="font-style:normal;font-weight:normal;font-size:328.57687378px;line-height:125%;font-family:sans-serif;letter-spacing:0px;word-spacing:0px;fill:#ffffff;fill-opacity:1;stroke:none;stroke-width:1px;stroke-linecap:butt;stroke-linejoin:miter;stroke-opacity:1;"
     x="1365.4482"
     y="642.45245"
     id="text3458-9"
     sodipodi:linespacing="125%"
     transform="scale(0.99994071,1.0000593)"><tspan
       sodipodi:role="line"
       id="tspan3460-78"
       x="1365.4482"
       y="642.45245"
       style="font-style:normal;font-variant:normal;font-weight:normal;font-stretch:normal;font-family:saxMono;-inkscape-font-specification:saxMono;fill:#ffffff;" /></text>
<text
     xml:space="preserve"
     style="font-style:normal;font-weight:normal;font-size:328.57687378px;line-height:125%;font-family:sans-serif;letter-spacing:0px;word-spacing:0px;fill:#ffffff;fill-opacity:1;stroke:none;stroke-width:1px;stroke-linecap:butt;stroke-linejoin:miter;stroke-opacity:1;"
     x="1543.7229"
     y="649.66144"
     id="text3458-3"
     sodipodi:linespacing="125%"
     transform="scale(0.99994071,1.0000593)"><tspan
       sodipodi:role="line"
       id="tspan3460-33"
       x="1543.7229"
       y="649.66144"
       style="font-style:normal;font-variant:normal;font-weight:normal;font-stretch:normal;font-family:saxMono;-inkscape-font-specification:saxMono;fill:#ffffff;">l</tspan></text>
<text
     xml:space="preserve"
     style="font-style:normal;font-weight:normal;font-size:328.57687378px;line-height:125%;font-family:sans-serif;letter-spacing:0px;word-spacing:0px;fill:#ffffff;fill-opacity:1;stroke:none;stroke-width:1px;stroke-linecap:butt;stroke-linejoin:miter;stroke-opacity:1;"
     x="1696.4425"
     y="646.4527"
     id="text3458-2"
     sodipodi:linespacing="125%"
     transform="scale(0.99994071,1.0000593)"><tspan
       sodipodi:role="line"
       id="tspan3460-72"
       x="1696.4425"
       y="646.4527"
       style="font-style:normal;font-variant:normal;font-weight:normal;font-stretch:normal;font-family:saxMono;-inkscape-font-specification:saxMono;fill:#ffffff;">t</tspan></text>
</svg>